<?xml version="1.0" encoding="utf-8"?>
<!-- Generator: Adobe Illustrator 23.0.1, SVG Export Plug-In . SVG Version: 6.00 Build 0)  -->
<svg version="1.1" id="Layer_1" xmlns="http://www.w3.org/2000/svg" xmlns:xlink="http://www.w3.org/1999/xlink" x="0px" y="0px"
	 viewBox="0 0 99 20" style="enable-background:new 0 0 99 20;" xml:space="preserve">
<style type="text/css">
	.st0{fill:#121212;}
	.st1{fill:#FFFFFF;}
	.st2{fill:#002A32;}
	.st3{fill:#F48331;}
	.st4{fill-rule:evenodd;clip-rule:evenodd;fill:#121212;}
	.st5{fill-rule:evenodd;clip-rule:evenodd;fill:#FFFFFF;}
	.st6{fill:none;stroke:#00D6D6;stroke-width:15;stroke-linecap:round;stroke-linejoin:round;stroke-miterlimit:10;}
	.st7{fill:#00D6D6;}
	.st8{fill:none;stroke:#FFFFFF;stroke-width:2;stroke-linecap:round;stroke-linejoin:round;stroke-miterlimit:10;}
	.st9{fill:#00D6D6;stroke:#00D6D6;stroke-width:2;stroke-miterlimit:10;}
	.st10{fill:#121212;stroke:#F48331;stroke-miterlimit:10;}
	.st11{fill:none;}
	.st12{fill:#008C8F;}
	.st13{fill:#006A6D;}
</style>
<path class="st2" d="M97,10c0,4.41-3.59,8-8,8H10V2h79C93.41,2,97,5.59,97,10z"/>
<path class="st0" d="M97,10c0,4.41-3.59,8-8,8H10V2h79C93.41,2,97,5.59,97,10z"/>
<path class="st3" d="M96.07,2.93C94.26,1.12,91.76,0,89,0H10C9.48,0,8.96,0.25,8.65,0.75C8.34,1.23,7.83,1.49,7.29,1.49
	c-0.25,0-0.5-0.06-0.74-0.18C6.31,1.18,6.05,1.12,5.8,1.12c-0.82,0-1.56,0.64-1.6,1.54C4.17,3.5,3.5,4.17,2.66,4.2
	c-0.9,0.04-1.54,0.78-1.54,1.6c0,0.25,0.06,0.51,0.19,0.75c0.12,0.24,0.18,0.49,0.18,0.74c0,0.54-0.26,1.05-0.74,1.36
	C0.25,8.96,0,9.48,0,10c0,0.52,0.25,1.04,0.75,1.35c0.48,0.31,0.74,0.82,0.74,1.36c0,0.25-0.06,0.5-0.18,0.74
	c-0.13,0.24-0.19,0.5-0.19,0.75c0,0.82,0.64,1.56,1.54,1.6c0.84,0.03,1.51,0.7,1.54,1.54c0.04,0.9,0.78,1.54,1.6,1.54
	c0.25,0,0.51-0.06,0.75-0.19c0.24-0.12,0.49-0.18,0.74-0.18c0.54,0,1.05,0.26,1.36,0.74C8.96,19.75,9.48,20,10,20h79
	c5.52,0,10-4.48,10-10C99,7.24,97.88,4.74,96.07,2.93z M8.92,17.4c-0.25-0.38-0.66-0.6-1.09-0.6c-0.2,0-0.4,0.05-0.59,0.15
	c-0.2,0.1-0.4,0.15-0.6,0.15c-0.65,0-1.25-0.51-1.28-1.23c-0.03-0.67-0.56-1.2-1.23-1.23c-0.72-0.03-1.23-0.63-1.23-1.28
	c0-0.2,0.05-0.4,0.15-0.6c0.1-0.19,0.15-0.39,0.15-0.59c0-0.43-0.22-0.84-0.6-1.09C2.2,10.83,2,10.42,2,10c0-0.42,0.2-0.83,0.6-1.08
	c0.38-0.25,0.6-0.66,0.6-1.09c0-0.2-0.05-0.4-0.15-0.59c-0.1-0.2-0.15-0.4-0.15-0.6c0-0.65,0.51-1.25,1.23-1.28
	C4.8,5.33,5.33,4.8,5.36,4.13C5.39,3.41,5.99,2.9,6.64,2.9c0.2,0,0.4,0.05,0.6,0.15C7.43,3.15,7.63,3.2,7.83,3.2
	c0.43,0,0.84-0.22,1.09-0.6C9.17,2.2,9.58,2,10,2s0.83,0.2,1.08,0.6c0.36,0.56,1.09,0.76,1.68,0.45c0.2-0.1,0.4-0.15,0.6-0.15
	c0.65,0,1.25,0.51,1.28,1.23c0.03,0.67,0.56,1.2,1.23,1.23c0.72,0.03,1.23,0.63,1.23,1.28c0,0.2-0.05,0.4-0.15,0.6
	c-0.1,0.19-0.15,0.39-0.15,0.59c0,0.43,0.22,0.84,0.6,1.09C17.8,9.17,18,9.58,18,10c0,0.42-0.2,0.83-0.6,1.08
	c-0.38,0.25-0.6,0.66-0.6,1.09c0,0.2,0.05,0.4,0.15,0.59c0.1,0.2,0.15,0.4,0.15,0.6c0,0.65-0.51,1.25-1.23,1.28
	c-0.67,0.03-1.2,0.56-1.23,1.23c-0.03,0.72-0.63,1.23-1.28,1.23c-0.2,0-0.4-0.05-0.6-0.15c-0.19-0.1-0.39-0.15-0.59-0.15
	c-0.43,0-0.84,0.22-1.09,0.6C10.83,17.8,10.42,18,10,18S9.17,17.8,8.92,17.4z M89,18H15.63c0.1-0.19,0.16-0.42,0.17-0.66
	c0.03-0.84,0.7-1.51,1.54-1.54c0.9-0.04,1.54-0.78,1.54-1.6c0-0.25-0.06-0.51-0.19-0.75c-0.12-0.24-0.18-0.49-0.18-0.74
	c0-0.54,0.26-1.05,0.74-1.36C19.75,11.04,20,10.52,20,10c0-0.52-0.25-1.04-0.75-1.35c-0.48-0.31-0.74-0.82-0.74-1.36
	c0-0.25,0.06-0.5,0.18-0.74c0.13-0.24,0.19-0.5,0.19-0.75c0-0.82-0.64-1.56-1.54-1.6c-0.84-0.03-1.51-0.7-1.54-1.54
	C15.79,2.42,15.73,2.19,15.63,2H89c4.41,0,8,3.59,8,8C97,14.41,93.41,18,89,18z"/>
<g>
	<path class="st1" d="M24.92,12.33c-0.53-0.45-0.81-1.1-0.85-1.97c-0.01-0.18-0.01-0.46-0.01-0.84c0-0.38,0-0.66,0.01-0.85
		c0.03-0.86,0.31-1.52,0.85-1.98C25.47,6.24,26.19,6,27.1,6c0.9,0,1.62,0.23,2.16,0.69c0.54,0.46,0.82,1.12,0.85,1.98
		c0.01,0.38,0.02,0.66,0.02,0.85c0,0.19-0.01,0.47-0.02,0.84c-0.03,0.87-0.31,1.53-0.84,1.97C28.74,12.78,28.02,13,27.1,13
		C26.18,13,25.45,12.78,24.92,12.33z M27.9,11.24c0.2-0.2,0.31-0.52,0.32-0.94c0.01-0.38,0.02-0.65,0.02-0.81s-0.01-0.42-0.02-0.79
		c-0.01-0.42-0.12-0.73-0.32-0.94c-0.2-0.2-0.47-0.31-0.81-0.31c-0.34,0-0.62,0.1-0.82,0.31c-0.2,0.2-0.31,0.52-0.32,0.94
		c-0.01,0.18-0.01,0.44-0.01,0.79c0,0.35,0,0.62,0.01,0.81c0.01,0.42,0.12,0.73,0.32,0.94c0.2,0.2,0.47,0.31,0.82,0.31
		C27.44,11.55,27.7,11.44,27.9,11.24z"/>
	<path class="st1" d="M31.3,12.83c-0.05-0.05-0.07-0.1-0.07-0.17V6.35c0-0.07,0.02-0.13,0.07-0.18c0.05-0.05,0.1-0.07,0.17-0.07
		h4.52c0.07,0,0.13,0.03,0.18,0.07c0.05,0.05,0.07,0.11,0.07,0.18v1.03c0,0.07-0.02,0.13-0.07,0.18c-0.05,0.05-0.11,0.07-0.18,0.07
		h-2.97v1.35h2.78c0.07,0,0.13,0.03,0.18,0.07c0.05,0.05,0.07,0.11,0.07,0.18v1.03c0,0.07-0.02,0.13-0.07,0.18
		c-0.05,0.05-0.11,0.07-0.18,0.07h-2.78v2.16c0,0.06-0.02,0.12-0.07,0.17s-0.1,0.07-0.17,0.07h-1.3
		C31.41,12.91,31.35,12.88,31.3,12.83z"/>
	<path class="st1" d="M37.34,12.83c-0.05-0.05-0.07-0.1-0.07-0.17V6.35c0-0.07,0.02-0.13,0.07-0.18c0.05-0.05,0.1-0.07,0.17-0.07
		h4.52c0.07,0,0.13,0.03,0.18,0.07c0.05,0.05,0.07,0.11,0.07,0.18v1.03c0,0.07-0.02,0.13-0.07,0.18c-0.05,0.05-0.11,0.07-0.18,0.07
		h-2.97v1.35h2.78c0.07,0,0.13,0.03,0.18,0.07c0.05,0.05,0.07,0.11,0.07,0.18v1.03c0,0.07-0.02,0.13-0.07,0.18
		c-0.05,0.05-0.11,0.07-0.18,0.07h-2.78v2.16c0,0.06-0.02,0.12-0.07,0.17c-0.05,0.05-0.1,0.07-0.17,0.07h-1.3
		C37.45,12.91,37.39,12.88,37.34,12.83z"/>
	<path class="st1" d="M43.38,12.83c-0.05-0.05-0.07-0.1-0.07-0.17V6.34c0-0.07,0.02-0.13,0.07-0.17c0.05-0.05,0.1-0.07,0.17-0.07
		h1.39c0.07,0,0.13,0.02,0.17,0.07c0.05,0.05,0.07,0.1,0.07,0.17v6.32c0,0.06-0.02,0.12-0.07,0.17c-0.05,0.05-0.1,0.07-0.17,0.07
		h-1.39C43.48,12.91,43.43,12.88,43.38,12.83z"/>
	<path class="st1" d="M47.14,12.33c-0.53-0.45-0.81-1.1-0.84-1.96c-0.01-0.18-0.01-0.46-0.01-0.86c0-0.4,0-0.69,0.01-0.88
		c0.03-0.84,0.32-1.49,0.85-1.95C47.69,6.23,48.41,6,49.32,6c0.58,0,1.1,0.09,1.55,0.28c0.46,0.19,0.82,0.46,1.08,0.82
		c0.27,0.36,0.4,0.78,0.42,1.26c0,0.06-0.02,0.11-0.06,0.15c-0.04,0.04-0.09,0.06-0.15,0.06h-1.38c-0.09,0-0.16-0.02-0.2-0.05
		c-0.04-0.04-0.08-0.1-0.11-0.2C50.38,8,50.24,7.78,50.06,7.65c-0.18-0.13-0.43-0.19-0.73-0.19c-0.73,0-1.11,0.41-1.14,1.22
		c-0.01,0.18-0.01,0.44-0.01,0.81s0,0.64,0.01,0.83c0.03,0.82,0.41,1.23,1.14,1.23c0.3,0,0.54-0.06,0.73-0.19
		c0.19-0.13,0.33-0.35,0.41-0.66c0.03-0.1,0.06-0.16,0.11-0.2c0.05-0.04,0.11-0.05,0.2-0.05h1.38c0.06,0,0.11,0.02,0.15,0.06
		c0.04,0.04,0.06,0.09,0.06,0.15c-0.01,0.49-0.15,0.91-0.42,1.26c-0.27,0.36-0.63,0.63-1.08,0.82C50.42,12.91,49.9,13,49.32,13
		C48.4,13,47.67,12.78,47.14,12.33z"/>
	<path class="st1" d="M53.44,12.83c-0.05-0.05-0.07-0.1-0.07-0.17V6.34c0-0.07,0.02-0.13,0.07-0.17c0.05-0.05,0.1-0.07,0.17-0.07H55
		c0.07,0,0.13,0.02,0.17,0.07c0.05,0.05,0.07,0.1,0.07,0.17v6.32c0,0.06-0.02,0.12-0.07,0.17c-0.05,0.05-0.1,0.07-0.17,0.07h-1.39
		C53.55,12.91,53.49,12.88,53.44,12.83z"/>
	<path class="st1" d="M56.05,12.84c-0.04-0.04-0.06-0.09-0.06-0.14c0-0.04,0-0.07,0.01-0.09l2.27-6.23
		c0.06-0.19,0.19-0.28,0.39-0.28h1.52c0.19,0,0.32,0.09,0.39,0.28l2.26,6.23c0.01,0.02,0.01,0.05,0.01,0.09
		c0,0.05-0.02,0.1-0.06,0.14c-0.04,0.04-0.09,0.06-0.14,0.06h-1.26c-0.16,0-0.27-0.07-0.33-0.21l-0.35-0.94h-2.55l-0.35,0.94
		c-0.06,0.14-0.17,0.21-0.33,0.21h-1.26C56.14,12.91,56.09,12.89,56.05,12.84z M58.54,10.29h1.73l-0.87-2.48L58.54,10.29z"/>
	<path class="st1" d="M63.64,12.83c-0.05-0.05-0.07-0.1-0.07-0.17V6.34c0-0.07,0.02-0.13,0.07-0.17c0.05-0.05,0.1-0.07,0.17-0.07
		h1.36c0.07,0,0.13,0.02,0.18,0.07c0.05,0.05,0.07,0.1,0.07,0.17v5.04h2.92c0.07,0,0.13,0.02,0.18,0.07
		c0.05,0.05,0.07,0.11,0.07,0.18v1.03c0,0.07-0.02,0.13-0.07,0.18c-0.05,0.05-0.11,0.07-0.18,0.07h-4.52
		C63.75,12.91,63.69,12.88,63.64,12.83z"/>
	<path class="st1" d="M71.97,12.81c-0.07-0.06-0.11-0.14-0.12-0.23l-1.04-6.22C70.8,6.35,70.8,6.33,70.8,6.31
		c0-0.05,0.02-0.1,0.06-0.14c0.04-0.04,0.09-0.06,0.14-0.06h1.27c0.19,0,0.29,0.08,0.31,0.22L73.18,10l0.67-2.13
		c0.05-0.18,0.16-0.26,0.32-0.26h0.73c0.16,0,0.27,0.09,0.32,0.26l0.67,2.12l0.6-3.67c0.01-0.08,0.04-0.13,0.09-0.17
		C76.63,6.12,76.7,6.1,76.8,6.1h1.27c0.06,0,0.11,0.02,0.15,0.06c0.04,0.04,0.06,0.09,0.06,0.14v0.06l-1.04,6.22
		c-0.01,0.09-0.06,0.17-0.13,0.23c-0.07,0.06-0.16,0.09-0.26,0.09h-0.98c-0.1,0-0.19-0.03-0.24-0.08c-0.06-0.05-0.1-0.11-0.12-0.17
		l-0.96-2.69l-0.96,2.69c-0.03,0.06-0.07,0.12-0.13,0.17c-0.06,0.05-0.14,0.08-0.24,0.08h-0.97C72.13,12.91,72.04,12.88,71.97,12.81
		z"/>
	<path class="st1" d="M79.32,12.83c-0.05-0.05-0.07-0.1-0.07-0.17V6.34c0-0.07,0.02-0.13,0.07-0.17c0.05-0.05,0.1-0.07,0.17-0.07
		h1.39c0.07,0,0.13,0.02,0.18,0.07c0.05,0.05,0.07,0.1,0.07,0.17v6.32c0,0.06-0.02,0.12-0.07,0.17s-0.1,0.07-0.18,0.07h-1.39
		C79.43,12.91,79.37,12.88,79.32,12.83z"/>
	<path class="st1" d="M82.52,12.83c-0.05-0.05-0.07-0.1-0.07-0.17V6.35c0-0.07,0.02-0.13,0.07-0.18c0.05-0.05,0.1-0.07,0.18-0.07H84
		c0.07,0,0.13,0.03,0.17,0.07c0.05,0.05,0.07,0.11,0.07,0.18v2.12l1.72-2.18c0.07-0.13,0.2-0.19,0.38-0.19h1.49
		c0.05,0,0.1,0.02,0.14,0.06c0.04,0.04,0.06,0.09,0.06,0.14c0,0.05-0.01,0.09-0.04,0.12l-2.27,2.94l2.45,3.23
		c0.03,0.03,0.04,0.06,0.04,0.12s-0.02,0.1-0.06,0.14c-0.04,0.04-0.09,0.06-0.15,0.06h-1.53c-0.1,0-0.19-0.02-0.25-0.06
		c-0.06-0.04-0.11-0.08-0.14-0.13l-1.85-2.37v2.32c0,0.06-0.02,0.12-0.07,0.17s-0.1,0.07-0.17,0.07h-1.3
		C82.63,12.91,82.57,12.88,82.52,12.83z"/>
	<path class="st1" d="M89.02,12.83c-0.05-0.05-0.07-0.1-0.07-0.17V6.34c0-0.07,0.02-0.13,0.07-0.17c0.05-0.05,0.1-0.07,0.17-0.07
		h1.39c0.07,0,0.13,0.02,0.18,0.07c0.05,0.05,0.07,0.1,0.07,0.17v6.32c0,0.06-0.02,0.12-0.07,0.17s-0.1,0.07-0.18,0.07h-1.39
		C89.12,12.91,89.06,12.88,89.02,12.83z"/>
</g>
<path class="st0" d="M18,10c0,0.42-0.2,0.83-0.6,1.08c-0.38,0.25-0.6,0.66-0.6,1.09c0,0.2,0.05,0.4,0.15,0.59
	c0.1,0.2,0.15,0.4,0.15,0.6c0,0.65-0.51,1.25-1.23,1.28c-0.67,0.03-1.2,0.56-1.23,1.23c-0.03,0.72-0.63,1.23-1.28,1.23
	c-0.2,0-0.4-0.05-0.6-0.15c-0.19-0.1-0.39-0.15-0.59-0.15c-0.43,0-0.84,0.22-1.09,0.6C10.83,17.8,10.42,18,10,18s-0.83-0.2-1.08-0.6
	c-0.25-0.38-0.66-0.6-1.09-0.6c-0.2,0-0.4,0.05-0.59,0.15c-0.2,0.1-0.4,0.15-0.6,0.15c-0.65,0-1.25-0.51-1.28-1.23
	c-0.03-0.67-0.56-1.2-1.23-1.23c-0.72-0.03-1.23-0.63-1.23-1.28c0-0.2,0.05-0.4,0.15-0.6c0.1-0.19,0.15-0.39,0.15-0.59
	c0-0.43-0.22-0.84-0.6-1.09C2.2,10.83,2,10.42,2,10c0-0.42,0.2-0.83,0.6-1.08c0.38-0.25,0.6-0.66,0.6-1.09c0-0.2-0.05-0.4-0.15-0.59
	c-0.1-0.2-0.15-0.4-0.15-0.6c0-0.65,0.51-1.25,1.23-1.28C4.8,5.33,5.33,4.8,5.36,4.13C5.39,3.41,5.99,2.9,6.64,2.9
	c0.2,0,0.4,0.05,0.6,0.15C7.43,3.15,7.63,3.2,7.83,3.2c0.43,0,0.84-0.22,1.09-0.6C9.17,2.2,9.58,2,10,2s0.83,0.2,1.08,0.6
	c0.36,0.56,1.09,0.76,1.68,0.45c0.2-0.1,0.4-0.15,0.6-0.15c0.65,0,1.25,0.51,1.28,1.23c0.03,0.67,0.56,1.2,1.23,1.23
	c0.72,0.03,1.23,0.63,1.23,1.28c0,0.2-0.05,0.4-0.15,0.6c-0.1,0.19-0.15,0.39-0.15,0.59c0,0.43,0.22,0.84,0.6,1.09
	C17.8,9.17,18,9.58,18,10z"/>
<g>
	<path class="st1" d="M8.82,13c-0.26,0-0.51-0.1-0.71-0.29l-2-2c-0.39-0.39-0.39-1.02,0-1.41s1.02-0.39,1.41,0l1.29,1.29l3.29-3.29
		c0.39-0.39,1.02-0.39,1.41,0s0.39,1.02,0,1.41l-4,4C9.33,12.91,9.08,13,8.82,13z"/>
</g>
</svg>
