<?xml version="1.0" encoding="UTF-8" standalone="no"?>
<!-- Generator: Adobe Illustrator 18.1.1, SVG Export Plug-In . SVG Version: 6.00 Build 0)  -->

<svg
   xmlns:dc="http://purl.org/dc/elements/1.1/"
   xmlns:cc="http://creativecommons.org/ns#"
   xmlns:rdf="http://www.w3.org/1999/02/22-rdf-syntax-ns#"
   xmlns:svg="http://www.w3.org/2000/svg"
   xmlns="http://www.w3.org/2000/svg"
   xmlns:sodipodi="http://sodipodi.sourceforge.net/DTD/sodipodi-0.dtd"
   xmlns:inkscape="http://www.inkscape.org/namespaces/inkscape"
   version="1.1"
   id="Layer_1"
   x="0px"
   y="0px"
   viewBox="0 0 214 52"
   enable-background="new 0 0 214 52"
   xml:space="preserve"
   inkscape:version="0.91 r13725"
   sodipodi:docname="premium-logo-light.svg"><metadata
     id="metadata57"><rdf:RDF><cc:Work
         rdf:about=""><dc:format>image/svg+xml</dc:format><dc:type
           rdf:resource="http://purl.org/dc/dcmitype/StillImage" /></cc:Work></rdf:RDF></metadata><defs
     id="defs55" /><sodipodi:namedview
     pagecolor="#ffffff"
     bordercolor="#666666"
     borderopacity="1"
     objecttolerance="10"
     gridtolerance="10"
     guidetolerance="10"
     inkscape:pageopacity="0"
     inkscape:pageshadow="2"
     inkscape:window-width="2071"
     inkscape:window-height="1022"
     id="namedview53"
     showgrid="false"
     inkscape:zoom="1.4485981"
     inkscape:cx="107"
     inkscape:cy="26"
     inkscape:window-x="0"
     inkscape:window-y="0"
     inkscape:window-maximized="0"
     inkscape:current-layer="Layer_1" /><g
     id="g3"><g
       id="g5"><polygon
         fill="#F48020"
         points="0.6,21.4 20.6,1.5 20.6,8.4 3.3,21.2 11.5,43.2 10.2,43.2   "
         id="polygon7" /><polygon
         fill="#FFFFFF"
         points="4.9,21.4 29.7,3 29,8.8 11.7,19.2 34,7 33.1,12.8 15.3,19.6 37.7,12.2 36.2,17.2 10.6,23.7   "
         id="polygon9" /><g
         id="g11"><path
           fill="#F48020"
           d="M10.2,25l7.9,25l20.3-10.4l1.1-21.9L10.2,25z M32.6,39.2c-0.9,0.9-2.1,1.1-2.8,1.7     c-0.4,0.4-0.6,1.1-0.6,1.1c-0.7-1.1-1.5-1.4-2.3-1.4c-0.8-0.1-2.2,0.3-4.4-1.1c-1.5-1-1.8-2.4-1.9-3.3c0,0,0-0.1,0-0.1     c0-0.1,0-0.1,0-0.2c0-0.1,0-0.2,0-0.3c0,0,0,0,0,0c0,0,0,0,0,0c0.1-0.9,0.7-1.7,1.9-2.5c0,0-0.6,1.4,0.4,2.6     c0.6,0.7,1.8,0.9,2.5,0.2c0.3-0.3,0.5-0.8,0.6-1.3c0.1-0.9-0.1-1.9-0.9-2.4c-1.4-0.8-1.8-2.2-1.2-3.2c0,0,0.5,1.6,1.5,1.4     c0.7-0.2,0.7-0.9,0.5-1.2c-0.3-0.3-2.4-2.5-0.2-4.6c0,0,1.3-1.2,3-1.5c0.1,0,0.1,0,0.2,0c-1,0.3-2,1.2-2.3,2.2c0,0,0,0,0,0.1     c-0.2,1.2,0.3,2.2,1.1,3.1c0.6,0.7,1.4,1.2,1.8,2.2c-0.4-0.1-0.7,0.1-0.9,0.4c-0.2,0.4-0.3,0.9,0,1.2c0.2,0.2,0.5,0.4,0.7,0.4     c0.1,0,0.2,0,0.3-0.1c0.1,0,0.1,0,0.1-0.1c0.3-0.2,0.5-0.7,0.3-1.1c0.4,0.2,0.5,0.9,0.5,1.2c0,0.4-0.1,0.8-0.3,1.1     c-0.1,0.3-0.3,0.6-0.4,0.9C30,34.8,30,35.1,30,35.3c0,0.3,0.1,0.6,0.3,0.9c0.6,0.7,1.5-0.3,1.7-0.9c0.2-0.8-0.1-1.8-0.6-2.4     c0,0,1,0.3,1.9,2C34.1,36.4,33.5,38.3,32.6,39.2z"
           id="path13" /></g></g><g
       id="g15"
       transform="translate(0,8)"><path
         d="m 69.5,26.1 c 0,0.3 -0.1,0.5 -0.2,0.8 l 0,0 c -0.1,0.3 -0.3,0.6 -0.7,0.8 -2.3,1.8 -4.9,2.7 -7.8,2.7 -3.5,0 -6.5,-1.2 -9,-3.6 -2.5,-2.4 -3.7,-5.3 -3.7,-8.8 0,-3.5 1.2,-6.4 3.7,-8.8 2.5,-2.4 5.5,-3.6 9,-3.6 3,0 5.6,0.9 7.8,2.7 0.4,0.3 0.7,0.8 0.8,1.3 0.1,0.6 -0.1,1 -0.4,1.5 -0.3,0.4 -0.8,0.7 -1.3,0.7 -0.6,0.1 -1,-0.1 -1.5,-0.4 -1.6,-1.2 -3.5,-1.9 -5.7,-1.9 -2.2,0 -4.2,0.8 -5.9,2.5 -1.7,1.7 -2.6,3.6 -2.6,6 0,2.3 0.9,4.3 2.6,6 1.7,1.7 3.8,2.5 6.2,2.5 1.6,0 3.2,-0.4 4.7,-1.3 l 0,-4.7 -4.9,0 c -0.5,0 -1,-0.2 -1.4,-0.6 -0.4,-0.4 -0.6,-0.9 -0.6,-1.4 0,-0.5 0.2,-1 0.6,-1.4 0.4,-0.4 0.8,-0.6 1.4,-0.6 l 6.8,0 c 0.6,0 1,0.2 1.4,0.6 0.4,0.4 0.6,0.8 0.6,1.4 l 0,7.6 z"
         id="path17"
         inkscape:connector-curvature="0"
         style="fill:#ffffff" /><path
         d="m 87.1,29.2 -1.7,-4.5 -8.4,0 -1.7,4.5 C 75,30 74.4,30.4 73.6,30.4 72.8,30.4 72.2,30.1 71.9,29.6 71.6,29 71.5,28.5 71.7,27.9 L 79.3,7.6 c 0.2,-0.4 0.4,-0.7 0.7,-0.9 0.3,-0.2 0.7,-0.3 1.1,-0.3 0.9,0 1.5,0.4 1.8,1.2 l 7.6,20.3 c 0.2,0.6 0.1,1.2 -0.2,1.7 -0.3,0.6 -0.9,0.8 -1.7,0.8 -0.6,0 -1.2,-0.4 -1.5,-1.2 z m -8.6,-8.3 5.5,0 -2.8,-7.4 -2.7,7.4 z"
         id="path19"
         inkscape:connector-curvature="0"
         style="fill:#ffffff" /><path
         d="m 102.6,21.7 0,0 c -0.7,0 -1.3,-0.3 -1.7,-0.8 L 96,14 96,28.5 c 0,0.5 -0.2,1 -0.6,1.3 -0.4,0.4 -0.8,0.6 -1.4,0.6 -0.5,0 -1,-0.2 -1.3,-0.6 -0.4,-0.4 -0.6,-0.8 -0.6,-1.3 l 0,-20.3 c 0,-0.5 0.2,-1 0.6,-1.3 0.4,-0.4 0.8,-0.6 1.3,-0.6 l 0.1,0 c 0.7,0 1.2,0.3 1.5,0.8 l 6.8,9.5 6.8,-9.5 c 0.4,-0.5 0.9,-0.8 1.5,-0.8 l 0,0 c 0.5,0 1,0.2 1.4,0.6 0.4,0.4 0.6,0.8 0.6,1.3 l 0,20.3 c 0,0.5 -0.2,0.9 -0.6,1.3 -0.4,0.4 -0.8,0.6 -1.4,0.6 -0.5,0 -1,-0.2 -1.3,-0.6 -0.4,-0.4 -0.6,-0.8 -0.6,-1.3 l 0,-14.5 -5,6.9 c 0,0.5 -0.6,0.8 -1.2,0.8 z"
         id="path21"
         inkscape:connector-curvature="0"
         style="fill:#ffffff" /><path
         d="m 118.1,30.4 c -0.5,0 -1,-0.2 -1.3,-0.6 -0.4,-0.4 -0.6,-0.8 -0.6,-1.3 l 0,-20.3 c 0,-0.5 0.2,-1 0.6,-1.3 0.4,-0.4 0.8,-0.6 1.3,-0.6 l 11.2,0 c 0.5,0 0.9,0.2 1.3,0.6 0.4,0.4 0.6,0.8 0.6,1.3 0,0.5 -0.2,1 -0.6,1.4 -0.4,0.4 -0.8,0.6 -1.3,0.6 l -9.3,0 0,6.3 8,0 c 0.5,0 0.9,0.2 1.3,0.6 0.4,0.4 0.6,0.8 0.6,1.3 0,0.5 -0.2,1 -0.5,1.3 -0.4,0.4 -0.8,0.6 -1.3,0.6 l -8,0 0,6.3 9.3,0 c 0.5,0 0.9,0.2 1.3,0.6 0.4,0.4 0.6,0.8 0.6,1.3 0,0.5 -0.2,1 -0.6,1.3 -0.4,0.4 -0.8,0.6 -1.3,0.6 l -11.1,0 -0.2,0 0,0 z"
         id="path23"
         inkscape:connector-curvature="0"
         style="fill:#ffffff" /><path
         d="m 147.2,8.5 c 1.4,1.4 2.2,3.2 2.2,5.2 0,2 -0.7,3.8 -2.2,5.2 -1.4,1.4 -3.2,2.1 -5.2,2.1 l -4.2,0 0,7.5 c 0,0.5 -0.2,1 -0.6,1.3 -0.4,0.4 -0.8,0.6 -1.4,0.6 -0.5,0 -1,-0.2 -1.3,-0.6 -0.4,-0.4 -0.6,-0.8 -0.6,-1.3 l 0,-20.3 c 0,-0.5 0.2,-1 0.6,-1.3 0.4,-0.4 0.8,-0.6 1.3,-0.6 l 6.2,0 c 2,0 3.8,0.7 5.2,2.2 z m -9.5,1.6 0,7.1 4.2,0 c 1,0 1.8,-0.3 2.5,-1 0.7,-0.7 1,-1.5 1.1,-2.5 0,-1 -0.4,-1.9 -1.1,-2.5 -0.7,-0.7 -1.5,-1 -2.5,-1 l -4.2,0 z"
         id="path25"
         inkscape:connector-curvature="0"
         style="fill:#f48020" /><path
         d="m 153.2,30.4 c -0.5,0 -1,-0.2 -1.3,-0.6 -0.4,-0.4 -0.5,-0.8 -0.5,-1.3 l 0,-20.3 c 0,-0.5 0.2,-1 0.5,-1.3 0.4,-0.4 0.8,-0.6 1.3,-0.6 l 11.2,0 c 0.5,0 0.9,0.2 1.3,0.6 0.4,0.4 0.6,0.8 0.6,1.3 0,0.5 -0.2,1 -0.6,1.4 -0.4,0.4 -0.8,0.6 -1.3,0.6 l -9.3,0 0,6.3 8,0 c 0.5,0 0.9,0.2 1.3,0.6 0.4,0.4 0.6,0.8 0.6,1.3 0,0.5 -0.2,1 -0.6,1.3 -0.4,0.4 -0.8,0.6 -1.3,0.6 l -8,0 0,6.3 9.3,0 c 0.5,0 0.9,0.2 1.3,0.6 0.4,0.4 0.6,0.8 0.6,1.3 0,0.5 -0.2,1 -0.6,1.3 -0.4,0.4 -0.8,0.6 -1.3,0.6 l -11.1,0 -0.1,0 0,0 z"
         id="path27"
         inkscape:connector-curvature="0"
         style="fill:#f48020" /><path
         d="m 168.5,28.5 0,-20.3 c 0,-0.5 0.2,-1 0.6,-1.3 0.4,-0.4 0.8,-0.6 1.3,-0.6 l 4.1,0 c 3.3,0 6.2,1.2 8.5,3.5 2.3,2.4 3.5,5.2 3.5,8.5 0,3.3 -1.2,6.2 -3.5,8.5 -2.3,2.4 -5.2,3.5 -8.5,3.5 l -4.1,0 c -0.5,0 -1,-0.2 -1.3,-0.6 -0.4,-0.3 -0.6,-0.7 -0.6,-1.2 z m 3.8,-18.4 0,16.4 2.1,0 c 2.3,0 4.2,-0.8 5.8,-2.4 1.6,-1.6 2.4,-3.5 2.4,-5.8 0,-2.3 -0.8,-4.2 -2.4,-5.8 -1.6,-1.6 -3.5,-2.4 -5.8,-2.4 l -2.1,0 z"
         id="path29"
         inkscape:connector-curvature="0"
         style="fill:#f48020" /><path
         d="m 189.1,8.2 c 0,-0.5 0.2,-1 0.5,-1.3 0.4,-0.4 0.8,-0.6 1.3,-0.6 0.5,0 1,0.2 1.4,0.6 0.4,0.4 0.6,0.8 0.6,1.3 l 0,20.3 c 0,0.5 -0.2,1 -0.6,1.3 -0.4,0.4 -0.8,0.6 -1.4,0.6 -0.5,0 -1,-0.2 -1.3,-0.6 -0.4,-0.4 -0.5,-0.8 -0.5,-1.3 l 0,-20.3 z"
         id="path31"
         inkscape:connector-curvature="0"
         style="fill:#f48020" /><path
         d="m 210.2,29.2 -1.7,-4.5 -8.4,0 -1.7,4.5 c -0.3,0.8 -0.9,1.2 -1.7,1.2 -0.8,0 -1.4,-0.3 -1.7,-0.8 -0.3,-0.6 -0.4,-1.1 -0.2,-1.7 l 7.6,-20.3 c 0.2,-0.4 0.4,-0.7 0.7,-0.9 0.3,-0.2 0.7,-0.3 1.1,-0.3 0.9,0 1.5,0.4 1.8,1.2 l 7.6,20.3 c 0.2,0.6 0.1,1.2 -0.2,1.7 -0.3,0.6 -0.9,0.8 -1.7,0.8 -0.7,0 -1.2,-0.4 -1.5,-1.2 z m -8.7,-8.3 5.6,0 -2.8,-7.4 -2.8,7.4 z"
         id="path33"
         inkscape:connector-curvature="0"
         style="fill:#f48020" /></g></g></svg>